<?xml version="1.0" standalone="no"?>
<!DOCTYPE svg PUBLIC "-//W3C//DTD SVG 20010904//EN"
 "http://www.w3.org/TR/2001/REC-SVG-20010904/DTD/svg10.dtd">
<svg version="1.0" xmlns="http://www.w3.org/2000/svg"
 width="592.000000pt" height="592.000000pt" viewBox="0 0 592.000000 592.000000"
 preserveAspectRatio="xMidYMid meet">
<metadata>
Created by potrace 1.14, written by Peter Selinger 2001-2017
</metadata>
<g transform="translate(0.000000,592.000000) scale(0.100000,-0.100000)"
fill="#000000" stroke="none">
<path d="M2289 5835 c-2 -2 -35 -6 -74 -10 -38 -3 -79 -8 -90 -10 -11 -3 -36
-7 -55 -10 -114 -16 -248 -51 -387 -99 -161 -55 -196 -69 -204 -79 -3 -5 -9
-8 -13 -7 -9 2 -156 -70 -188 -92 -16 -11 -28 -16 -28 -11 0 4 -4 3 -8 -2 -4
-6 -36 -28 -72 -49 -190 -115 -415 -307 -580 -496 -172 -198 -356 -513 -440
-753 -18 -50 -35 -99 -38 -107 -3 -8 -6 -19 -8 -25 -1 -5 -11 -44 -23 -85 -11
-41 -22 -86 -25 -100 -45 -239 -50 -285 -50 -525 -1 -169 4 -264 18 -345 3
-14 7 -43 10 -65 3 -22 8 -51 11 -65 3 -14 7 -34 9 -45 11 -54 45 -181 64
-235 3 -8 6 -19 7 -25 21 -85 129 -318 215 -463 30 -51 59 -102 65 -113 5 -10
13 -19 17 -19 5 0 8 -6 8 -14 0 -8 3 -16 8 -18 4 -2 20 -21 36 -43 102 -139
271 -321 395 -425 87 -72 190 -150 200 -150 5 0 11 -4 13 -8 4 -10 91 -67 173
-112 33 -18 79 -43 102 -56 97 -53 398 -168 495 -188 13 -3 66 -14 118 -26 52
-11 113 -22 135 -25 22 -3 56 -7 75 -10 181 -24 438 -24 605 0 17 3 48 7 70
10 70 9 109 16 140 25 17 5 44 11 60 14 17 2 70 16 119 31 209 61 411 150 595
262 l105 64 200 -200 c733 -732 949 -940 1002 -966 187 -91 396 -40 518 126
94 128 98 319 10 452 -14 22 -275 287 -581 591 l-555 552 56 78 c102 142 213
348 280 516 25 65 72 207 81 245 2 11 11 45 19 75 8 30 18 71 21 90 3 19 8 42
10 50 7 27 17 104 30 235 11 104 5 391 -9 490 -3 22 -8 60 -11 85 -9 61 -33
175 -49 230 -7 25 -13 47 -13 50 1 10 -66 207 -90 265 -65 158 -179 365 -259
475 -18 25 -48 65 -66 90 -144 195 -383 419 -593 556 -33 21 -61 42 -63 47 -2
4 -7 7 -11 7 -5 0 -47 22 -94 50 -48 27 -112 61 -144 75 -32 15 -71 33 -88 40
-35 17 -136 56 -150 60 -5 1 -23 8 -40 14 -16 7 -37 14 -46 16 -9 2 -47 12
-85 23 -84 24 -150 40 -201 48 -21 3 -40 7 -43 9 -3 2 -34 6 -69 10 -34 4 -72
9 -84 12 -25 6 -463 14 -468 8z m323 -159 c64 -3 134 -8 155 -11 66 -10 208
-34 228 -39 236 -60 399 -120 575 -213 111 -58 273 -160 278 -174 2 -5 10 -9
17 -9 7 0 15 -3 17 -8 2 -4 23 -23 48 -42 82 -64 104 -84 215 -195 132 -132
273 -316 357 -463 93 -165 193 -399 223 -528 3 -10 13 -55 24 -99 11 -44 22
-100 26 -125 3 -25 8 -52 11 -61 24 -84 24 -549 -1 -669 -3 -14 -8 -45 -11
-70 -10 -74 -60 -258 -99 -365 -20 -55 -37 -106 -38 -112 0 -7 -4 -13 -9 -13
-4 0 -8 -5 -8 -10 0 -24 -126 -267 -156 -301 -8 -8 -14 -21 -14 -27 0 -6 -6
-17 -12 -24 -7 -7 -29 -36 -48 -63 -19 -28 -38 -51 -42 -53 -4 -2 -8 -8 -8
-13 0 -5 -8 -17 -17 -28 -10 -10 -31 -36 -48 -57 -40 -52 -229 -241 -284 -284
-24 -19 -48 -40 -55 -46 -19 -17 -197 -144 -203 -144 -3 0 -25 -13 -48 -29
-24 -16 -61 -37 -82 -47 -21 -10 -40 -21 -43 -24 -7 -9 -203 -95 -270 -119
-146 -52 -292 -91 -400 -107 -19 -3 -48 -7 -65 -10 -102 -15 -172 -19 -355
-18 -229 0 -296 7 -501 49 -55 11 -208 57 -304 91 -102 37 -347 154 -376 180
-8 8 -19 14 -23 14 -7 0 -154 97 -166 110 -3 3 -23 18 -45 35 -22 16 -45 34
-51 40 -6 5 -35 30 -65 55 -60 51 -199 191 -232 233 -12 16 -35 43 -50 60 -99
113 -269 406 -337 580 -18 45 -36 91 -41 102 -5 11 -11 29 -12 40 -2 11 -7 27
-10 35 -9 22 -47 164 -52 197 -3 15 -10 53 -15 83 -39 215 -44 461 -15 695 40
326 177 692 358 959 51 75 115 163 144 196 12 14 31 36 43 50 208 245 515 470
825 605 87 38 256 99 308 111 9 2 25 6 35 8 9 2 35 9 57 15 22 5 54 13 70 15
17 3 39 8 51 10 12 2 45 7 75 11 30 4 57 9 60 10 3 2 64 7 135 10 71 4 130 8
132 10 2 2 9 2 15 0 7 -2 65 -6 129 -9z"/>
<path d="M3645 4866 c-89 -28 -159 -81 -201 -152 -17 -28 -31 -41 -42 -39 -9
2 -48 11 -87 20 -38 9 -77 18 -85 20 -8 2 -45 10 -81 19 -37 8 -78 17 -90 20
-13 2 -53 12 -89 21 -79 21 -75 20 -125 29 -22 4 -51 11 -65 16 -74 25 -77 24
-90 -27 0 -2 -9 -23 -20 -48 -11 -25 -20 -49 -21 -53 -1 -4 -3 -11 -4 -17 -1
-5 -10 -32 -20 -60 -9 -27 -19 -59 -22 -70 -3 -11 -7 -27 -10 -35 -3 -8 -7
-21 -9 -28 -1 -8 -6 -21 -10 -30 -4 -9 -8 -19 -9 -22 0 -3 -23 -72 -50 -155
-27 -82 -50 -152 -50 -155 -1 -3 -7 -18 -13 -33 -7 -16 -12 -33 -12 -38 0 -6
-7 -23 -15 -38 -12 -24 -20 -29 -52 -28 -32 0 -108 -6 -233 -18 -22 -3 -52 -8
-179 -32 -14 -2 -28 -6 -31 -8 -4 -2 -22 -7 -41 -10 -37 -6 -255 -73 -279 -86
-8 -4 -60 -29 -115 -55 -55 -26 -117 -58 -138 -71 l-39 -24 -39 25 c-72 48
-138 69 -230 72 -129 5 -221 -29 -308 -114 -178 -174 -173 -438 13 -614 22
-21 42 -38 46 -38 3 0 5 -47 4 -105 -1 -116 8 -180 38 -270 25 -72 74 -169 94
-186 8 -6 14 -16 14 -21 0 -24 138 -173 231 -251 91 -75 301 -195 429 -244 30
-11 64 -24 75 -29 11 -4 22 -8 25 -9 3 0 32 -9 65 -19 33 -10 67 -19 75 -21 8
-2 42 -10 75 -18 58 -14 81 -19 170 -33 75 -12 90 -13 185 -20 250 -19 514 0
730 52 36 9 75 18 87 20 43 8 230 77 318 117 396 181 663 480 710 797 9 55 9
186 0 200 -3 5 9 23 27 40 93 87 117 114 141 164 15 30 29 65 31 78 3 13 5 23
6 23 1 0 4 34 5 75 7 172 -82 314 -245 393 -125 60 -316 41 -418 -40 l-39 -31
-85 47 c-200 112 -428 189 -693 236 -16 3 -59 8 -95 11 -36 4 -72 8 -80 10 -8
1 -37 3 -63 3 l-49 1 7 33 c4 17 10 37 14 42 3 6 6 12 6 15 1 6 25 80 32 100
3 8 7 21 9 28 1 8 6 21 10 30 4 9 8 22 10 27 1 6 25 80 54 165 28 85 53 160
54 165 9 41 30 85 39 85 7 -1 39 -7 72 -16 33 -8 69 -17 80 -19 11 -2 31 -6
45 -9 14 -3 34 -8 45 -10 11 -2 49 -12 85 -21 36 -9 76 -19 90 -22 14 -3 30
-6 35 -7 6 -1 36 -8 68 -15 59 -13 63 -16 71 -61 36 -191 186 -311 371 -297
179 13 311 149 319 328 3 72 1 84 -35 164 -48 110 -165 186 -292 191 -40 1
-90 -3 -112 -10z m-955 -1030 c35 -4 76 -8 90 -10 14 -3 45 -8 70 -11 25 -4
54 -9 65 -12 11 -2 31 -6 45 -9 142 -28 342 -99 480 -171 174 -92 342 -232
427 -358 127 -189 158 -391 91 -590 -21 -61 -72 -160 -95 -183 -7 -7 -13 -18
-13 -23 0 -21 -186 -191 -271 -248 -179 -119 -431 -222 -628 -256 -19 -3 -37
-7 -40 -9 -5 -4 -56 -12 -136 -22 -172 -22 -507 -22 -625 1 -13 3 -40 7 -60
10 -20 3 -47 8 -60 10 -14 3 -36 7 -50 10 -48 9 -66 14 -151 39 -478 140 -819
434 -878 756 -14 80 -5 233 18 304 51 156 145 288 286 401 28 22 52 42 55 45
3 3 34 24 70 47 84 54 183 103 315 156 51 21 231 73 276 81 19 3 45 8 59 11
61 13 129 22 225 31 39 3 71 7 72 7 4 5 307 -2 363 -7z"/>
<path d="M1845 3330 c-4 -6 -10 -8 -15 -5 -14 9 -104 -60 -131 -101 -141 -215
82 -477 319 -374 197 85 202 362 7 463 -43 22 -170 34 -180 17z"/>
<path d="M2970 3331 c-80 -26 -133 -73 -168 -149 -20 -45 -24 -65 -20 -116 6
-71 24 -112 73 -162 124 -128 345 -89 418 75 26 59 27 145 2 203 -21 48 -79
109 -127 134 -36 19 -140 28 -178 15z"/>
<path d="M1867 2440 c-24 -40 -14 -70 38 -113 128 -107 306 -155 572 -155 210
1 338 25 465 89 72 36 127 79 146 116 21 39 -13 93 -58 93 -15 0 -47 -15 -71
-33 l-44 -33 -440 1 c-457 1 -460 1 -499 44 -13 14 -31 21 -55 21 -30 0 -40
-5 -54 -30z"/>
</g>
</svg>
